<svg width="143" height="46" viewBox="0 0 143 46" fill="none" xmlns="http://www.w3.org/2000/svg">
<rect width="142.525" height="46" rx="7.54098" fill="#090914"/>
<path d="M55.3688 33.5586L54.0662 30.2114H48.7541L47.4853 33.5586H45.709L50.4797 21.5729H52.3914L57.1621 33.5586H55.3688ZM51.3932 23.2972L49.3462 28.6731H53.4741L51.3932 23.2972ZM60.1798 36.7706H58.6065V25.4273H60.146V26.6952C60.3828 26.2669 60.7381 25.9175 61.2118 25.647C61.6855 25.3766 62.2381 25.2413 62.8697 25.2413C64.0426 25.2413 64.9562 25.6414 65.6103 26.4416C66.2757 27.2418 66.6084 28.2561 66.6084 29.4845C66.6084 30.7242 66.2644 31.7498 65.5765 32.5612C64.8998 33.3727 63.9806 33.7784 62.8189 33.7784C62.2212 33.7784 61.6911 33.6544 61.2287 33.4065C60.7663 33.1586 60.4166 32.843 60.1798 32.4598V36.7706ZM64.9844 29.4845C64.9844 28.6618 64.7644 27.9856 64.3246 27.4559C63.896 26.9149 63.3152 26.6444 62.5821 26.6444C61.8603 26.6444 61.2738 26.9149 60.8227 27.4559C60.3828 27.9856 60.1629 28.6618 60.1629 29.4845C60.1629 30.3298 60.3828 31.0229 60.8227 31.5638C61.2738 32.0935 61.8603 32.3584 62.5821 32.3584C63.3039 32.3584 63.8847 32.0935 64.3246 31.5638C64.7644 31.0229 64.9844 30.3298 64.9844 29.4845ZM70.208 36.7706H68.6347V25.4273H70.1742V26.6952C70.411 26.2669 70.7663 25.9175 71.24 25.647C71.7137 25.3766 72.2663 25.2413 72.8979 25.2413C74.0708 25.2413 74.9844 25.6414 75.6385 26.4416C76.3039 27.2418 76.6367 28.2561 76.6367 29.4845C76.6367 30.7242 76.2927 31.7498 75.6047 32.5612C74.928 33.3727 74.0088 33.7784 72.8472 33.7784C72.2494 33.7784 71.7193 33.6544 71.2569 33.4065C70.7945 33.1586 70.4449 32.843 70.208 32.4598V36.7706ZM75.0126 29.4845C75.0126 28.6618 74.7927 27.9856 74.3528 27.4559C73.9242 26.9149 73.3434 26.6444 72.6103 26.6444C71.8885 26.6444 71.302 26.9149 70.8509 27.4559C70.411 27.9856 70.1911 28.6618 70.1911 29.4845C70.1911 30.3298 70.411 31.0229 70.8509 31.5638C71.302 32.0935 71.8885 32.3584 72.6103 32.3584C73.3321 32.3584 73.9129 32.0935 74.3528 31.5638C74.7927 31.0229 75.0126 30.3298 75.0126 29.4845ZM90.7085 24.2946L89.2197 24.8187C89.1408 24.3003 88.887 23.8326 88.4585 23.4156C88.0299 22.9873 87.4378 22.7732 86.6821 22.7732C86.0167 22.7732 85.4641 22.9648 85.0242 23.348C84.584 23.7311 84.364 24.2045 84.364 24.768C84.364 25.2075 84.4937 25.5794 84.7531 25.8837C85.0242 26.188 85.4077 26.3965 85.9039 26.5092L87.6972 26.898C88.6897 27.1122 89.4566 27.5179 89.9979 28.1152C90.5393 28.7012 90.81 29.4169 90.81 30.2621C90.81 31.2314 90.4265 32.0654 89.6596 32.7641C88.8927 33.4628 87.8945 33.8122 86.6652 33.8122C85.3231 33.8122 84.2682 33.4628 83.5012 32.7641C82.7456 32.0541 82.3058 31.2145 82.1817 30.2452L83.7719 29.7381C83.8396 30.4594 84.1216 31.068 84.6178 31.5638C85.1144 32.0597 85.7911 32.3077 86.6483 32.3077C87.4378 32.3077 88.0468 32.1273 88.4754 31.7667C88.9039 31.4061 89.1182 30.9496 89.1182 30.3974C89.1182 29.9466 88.966 29.5578 88.6615 29.2309C88.3569 28.8928 87.9115 28.6618 87.325 28.5378L85.6163 28.1659C84.7249 27.9743 84.0144 27.5968 83.4843 27.0333C82.9543 26.4698 82.6892 25.7541 82.6892 24.8863C82.6892 23.9396 83.0727 23.1113 83.8396 22.4013C84.6178 21.68 85.5543 21.3193 86.6483 21.3193C87.8776 21.3193 88.8194 21.618 89.4735 22.2153C90.1276 22.8126 90.5393 23.5057 90.7085 24.2946ZM94.8871 22.8577V25.4273H96.6465V26.8642H94.8871V31.0905C94.8871 31.4737 94.9716 31.7554 95.1408 31.9358C95.3213 32.1161 95.6145 32.2062 96.0205 32.2062C96.2574 32.2062 96.466 32.1837 96.6465 32.1386V33.491C96.3758 33.5925 96.0149 33.6432 95.5638 33.6432C94.8645 33.6432 94.3119 33.4403 93.9059 33.0346C93.4998 32.6289 93.2968 32.0597 93.2968 31.3272V26.8642H91.7404V25.4273H92.1803C92.5976 25.4273 92.9077 25.3146 93.1107 25.0892C93.325 24.8525 93.4322 24.5482 93.4322 24.1763V22.8577H94.8871ZM100.361 31.6315C100.857 32.1386 101.461 32.3922 102.171 32.3922C102.882 32.3922 103.479 32.1386 103.964 31.6315C104.461 31.113 104.709 30.3974 104.709 29.4845C104.709 28.5829 104.461 27.8785 103.964 27.3714C103.479 26.8529 102.882 26.5937 102.171 26.5937C101.461 26.5937 100.857 26.8529 100.361 27.3714C99.8761 27.8785 99.6336 28.5829 99.6336 29.4845C99.6336 30.3974 99.8761 31.113 100.361 31.6315ZM99.1768 26.4078C99.9663 25.5851 100.964 25.1737 102.171 25.1737C103.378 25.1737 104.37 25.5851 105.149 26.4078C105.938 27.2192 106.333 28.2448 106.333 29.4845C106.333 30.7355 105.944 31.7723 105.166 32.595C104.387 33.4065 103.389 33.8122 102.171 33.8122C100.953 33.8122 99.955 33.4065 99.1768 32.595C98.3986 31.7723 98.0095 30.7355 98.0095 29.4845C98.0095 28.2448 98.3986 27.2192 99.1768 26.4078ZM112.885 25.3428V27.0333C112.648 26.9995 112.417 26.9825 112.191 26.9825C110.702 26.9825 109.958 27.8165 109.958 29.4845V33.5586H108.368V25.4273H109.924V26.8473C110.42 25.8105 111.232 25.292 112.36 25.292C112.541 25.292 112.716 25.3089 112.885 25.3428ZM115.529 28.6562H119.978C119.955 28.0476 119.752 27.5517 119.369 27.1685C118.985 26.7741 118.444 26.5768 117.745 26.5768C117.113 26.5768 116.595 26.7853 116.188 27.2023C115.782 27.608 115.563 28.0927 115.529 28.6562ZM120.215 30.7693L121.585 31.2426C121.348 31.9977 120.908 32.6176 120.266 33.1022C119.623 33.5755 118.845 33.8122 117.931 33.8122C116.792 33.8122 115.822 33.4234 115.021 32.6458C114.232 31.8569 113.837 30.7975 113.837 29.4676C113.837 28.2279 114.22 27.2023 114.987 26.3909C115.754 25.5794 116.668 25.1737 117.728 25.1737C118.957 25.1737 119.916 25.5625 120.604 26.3402C121.292 27.1065 121.636 28.1377 121.636 29.4338C121.636 29.6367 121.625 29.8057 121.602 29.9409H115.478C115.489 30.6622 115.726 31.2539 116.188 31.716C116.662 32.1781 117.243 32.4091 117.931 32.4091C119.093 32.4091 119.854 31.8625 120.215 30.7693Z" fill="white"/>
<path opacity="0.6" d="M46.9519 14.2191V11.3018H47.6672C48.4148 11.3018 49.0335 11.7719 49.0335 12.7637C49.0335 13.7554 48.4084 14.2191 47.6608 14.2191H46.9519ZM47.693 15.0435C48.9949 15.0435 49.9551 14.2062 49.9551 12.7637C49.9551 11.3211 49.0013 10.4775 47.6995 10.4775H46.0625V15.0435H47.693ZM52.1827 12.7572C52.1827 11.7268 52.9045 11.2374 53.6069 11.2374C54.3159 11.2374 55.0377 11.7268 55.0377 12.7572C55.0377 13.7876 54.3159 14.2771 53.6069 14.2771C52.9045 14.2771 52.1827 13.7876 52.1827 12.7572ZM51.2611 12.7637C51.2611 14.232 52.3695 15.1401 53.6069 15.1401C54.8508 15.1401 55.9593 14.232 55.9593 12.7637C55.9593 11.2889 54.8508 10.3809 53.6069 10.3809C52.3695 10.3809 51.2611 11.2889 51.2611 12.7637ZM61.6706 13.6331L60.6523 10.4775H59.7307L58.7189 13.6202L57.8811 10.4775H56.9402L58.2098 15.0435H59.1378L60.1818 11.7912L61.2259 15.0435H62.141L63.4042 10.4775H62.4955L61.6706 13.6331ZM68.7104 15.0435V10.4775H67.821V13.4978L65.9198 10.4775H64.8113V15.0435H65.7007V11.8041L67.7759 15.0435H68.7104ZM73.4834 15.0435V14.1934H71.4469V10.4775H70.5575V15.0435H73.4834ZM75.4692 12.7572C75.4692 11.7268 76.191 11.2374 76.8935 11.2374C77.6024 11.2374 78.3242 11.7268 78.3242 12.7572C78.3242 13.7876 77.6024 14.2771 76.8935 14.2771C76.191 14.2771 75.4692 13.7876 75.4692 12.7572ZM74.5476 12.7637C74.5476 14.232 75.6561 15.1401 76.8935 15.1401C78.1373 15.1401 79.2458 14.232 79.2458 12.7637C79.2458 11.2889 78.1373 10.3809 76.8935 10.3809C75.6561 10.3809 74.5476 11.2889 74.5476 12.7637ZM83.7021 15.0435H84.6688L82.9287 10.4775H81.8976L80.1446 15.0435H81.0855L81.4658 14.0002H83.3219L83.7021 15.0435ZM82.3938 11.4628L83.0254 13.1887H81.7622L82.3938 11.4628ZM86.9478 14.2191V11.3018H87.6632C88.4108 11.3018 89.0295 11.7719 89.0295 12.7637C89.0295 13.7554 88.4043 14.2191 87.6567 14.2191H86.9478ZM87.689 15.0435C88.9908 15.0435 89.9511 14.2062 89.9511 12.7637C89.9511 11.3211 88.9973 10.4775 87.6954 10.4775H86.0585V15.0435H87.689ZM94.5768 12.7572C94.5768 11.7268 95.2986 11.2374 96.0011 11.2374C96.71 11.2374 97.4318 11.7268 97.4318 12.7572C97.4318 13.7876 96.71 14.2771 96.0011 14.2771C95.2986 14.2771 94.5768 13.7876 94.5768 12.7572ZM93.6552 12.7637C93.6552 14.232 94.7637 15.1401 96.0011 15.1401C97.2449 15.1401 98.3534 14.232 98.3534 12.7637C98.3534 11.2889 97.2449 10.3809 96.0011 10.3809C94.7637 10.3809 93.6552 11.2889 93.6552 12.7637ZM103.829 15.0435V10.4775H102.94V13.4978L101.038 10.4775H99.9299V15.0435H100.819V11.8041L102.894 15.0435H103.829ZM111.439 11.3211V10.4775H107.656V11.3211H109.099V15.0435H109.995V11.3211H111.439ZM116.647 15.0435V10.4775H115.751V12.3129H113.759V10.4775H112.87V15.0435H113.759V13.1501H115.751V15.0435H116.647ZM121.358 15.0435V14.2062H119.386V13.1501H121.171V12.358H119.386V11.3147H121.358V10.4775H118.496V15.0435H121.358Z" fill="white"/>
<path d="M34.9664 28.7424C34.4433 29.9001 34.1935 30.4169 33.5199 31.4397C32.5814 32.8681 31.2572 34.6472 29.6163 34.6622C28.1587 34.6758 27.7841 33.7143 25.8053 33.7259C23.8266 33.7375 23.4143 34.6794 21.9566 34.6658C20.3157 34.6512 19.0621 33.0446 18.1225 31.6153C15.4963 27.6204 15.2219 22.9328 16.8416 20.4408C17.9926 18.6688 19.8092 17.6334 21.5166 17.6334C23.2552 17.6334 24.3483 18.5858 25.7862 18.5858C27.1809 18.5858 28.0303 17.6318 30.0407 17.6318C31.5603 17.6318 33.1704 18.4585 34.3179 19.8868C30.5583 21.9451 31.1696 27.308 34.9664 28.7424Z" fill="white"/>
<path d="M28.7267 15.1319C29.4572 14.1951 30.011 12.8734 29.8096 11.5215C28.6164 11.603 27.2217 12.3617 26.4071 13.3504C25.6674 14.2475 25.0566 15.5782 25.2943 16.8717C26.5959 16.9125 27.9437 16.1351 28.7267 15.1319Z" fill="white"/>
</svg>
