<svg width="28" height="28" viewBox="0 0 28 28" fill="none" xmlns="http://www.w3.org/2000/svg">
<circle cx="14" cy="14" r="13.5" stroke="#27C03D"/>
<path d="M18.1762 8.25328L18.1762 8.25323L18.1697 8.25086C17.7159 8.08293 17.2367 7.99361 16.7529 7.98671C16.0331 7.95392 15.8048 7.94721 14.0008 7.94721C12.1964 7.94721 11.9683 7.95425 11.2487 7.98671C10.7649 7.9936 10.2857 8.08292 9.83177 8.25086L9.83176 8.25081L9.82536 8.25328C9.46802 8.39109 9.1435 8.60219 8.87269 8.87301L9.22624 9.22656L8.87269 8.87301C8.60187 9.14382 8.39077 9.46834 8.25296 9.82568L8.25291 9.82566L8.25053 9.83209C8.08261 10.286 7.99329 10.7651 7.98639 11.249C7.9536 11.9687 7.94689 12.197 7.94689 14.0011C7.94689 15.8054 7.95393 16.0335 7.98639 16.7531C7.99327 17.237 8.08259 17.7162 8.25053 18.1701L8.25049 18.1701L8.25296 18.1765C8.39077 18.5338 8.60187 18.8583 8.87269 19.1291L9.22624 18.7756L8.87269 19.1291C9.1435 19.4 9.46802 19.6111 9.82536 19.7489L9.82534 19.7489L9.83177 19.7513C10.2856 19.9192 10.7648 20.0085 11.2486 20.0154C11.968 20.0482 12.1964 20.0549 14.0008 20.0549C15.8054 20.0549 16.0335 20.0479 16.7528 20.0154C17.2366 20.0086 17.7158 19.9192 18.1697 19.7513L18.1698 19.7513L18.1762 19.7489C18.5335 19.6111 18.858 19.4 19.1288 19.1291C19.3996 18.8583 19.6107 18.5338 19.7486 18.1765L19.7486 18.1765L19.751 18.1701C19.9189 17.7162 20.0082 17.237 20.0151 16.7532C20.0479 16.0335 20.0546 15.8051 20.0546 14.0011C20.0546 12.1967 20.0476 11.9686 20.0151 11.2491C20.0082 10.7652 19.9189 10.286 19.751 9.83209L19.751 9.83208L19.7486 9.82568C19.6107 9.46834 19.3996 9.14382 19.1288 8.87301C18.858 8.60219 18.5335 8.39109 18.1762 8.25328ZM11.2178 7.76711L11.2178 7.76727L11.2306 7.76669C11.9418 7.73431 12.1645 7.72656 14.0008 7.72656C15.837 7.72656 16.0599 7.7343 16.7707 7.76606L16.7707 7.76622L16.7831 7.76646C17.2886 7.77652 17.7887 7.8722 18.2623 8.04944C18.6461 8.19394 18.9937 8.42046 19.281 8.71319L19.2809 8.71326L19.2877 8.71991C19.5804 9.00712 19.8069 9.35475 19.9514 9.73853C20.1287 10.2121 20.2243 10.7123 20.2344 11.2178L20.2342 11.2178L20.2348 11.2306C20.2672 11.9418 20.275 12.1645 20.275 14.0008C20.275 15.837 20.2672 16.0599 20.2354 16.7707L20.2353 16.7707L20.235 16.7831C20.225 17.2878 20.1296 17.7873 19.9529 18.2602C19.8039 18.6443 19.5765 18.9932 19.2852 19.2847C18.994 19.5761 18.6453 19.8036 18.2614 19.9529C17.7885 20.1296 17.2891 20.225 16.7844 20.235L16.7844 20.2349L16.7716 20.2355C16.0604 20.2678 15.8387 20.2756 14.0014 20.2756C12.1645 20.2756 11.9424 20.2672 11.2308 20.2354L11.2308 20.2353L11.2184 20.235C10.7128 20.225 10.2125 20.1293 9.73879 19.9519C9.35516 19.8074 9.00767 19.5809 8.72055 19.2883L8.72062 19.2883L8.71384 19.2816C8.42115 18.9944 8.19465 18.6468 8.05015 18.2631C7.87287 17.7895 7.77716 17.2893 7.76711 16.7837L7.76727 16.7837L7.76669 16.7709C7.73431 16.0597 7.72656 15.8371 7.72656 14.0008C7.72656 12.1645 7.7343 11.9416 7.76606 11.2308L7.76622 11.2308L7.76646 11.2184C7.77652 10.7129 7.87221 10.2127 8.04947 9.73914C8.19414 9.35538 8.42082 9.00782 8.71369 8.72071L8.71375 8.72077L8.72061 8.71378C9.00762 8.42118 9.35499 8.19469 9.7385 8.05012C10.2121 7.87286 10.7122 7.77716 11.2178 7.76711Z" fill="#27C03D" stroke="#27C03D"/>
<path d="M12.3473 11.5254C12.8371 11.1981 13.413 11.0234 14.0021 11.0234C14.7922 11.0234 15.5498 11.3373 16.1084 11.8959C16.667 12.4545 16.9809 13.2121 16.9809 14.0021C16.9809 14.5913 16.8062 15.1672 16.4789 15.657C16.1515 16.1469 15.6863 16.5287 15.1421 16.7541C14.5978 16.9796 13.9988 17.0386 13.421 16.9236C12.8432 16.8087 12.3125 16.525 11.8959 16.1084C11.4793 15.6918 11.1956 15.1611 11.0807 14.5833C10.9657 14.0055 11.0247 13.4065 11.2502 12.8622C11.4756 12.318 11.8574 11.8527 12.3473 11.5254ZM12.4698 16.2954C12.9234 16.5985 13.4567 16.7602 14.0021 16.7602C14.7336 16.7602 15.4352 16.4696 15.9524 15.9524C16.4696 15.4352 16.7602 14.7336 16.7602 14.0021C16.7602 13.4567 16.5985 12.9234 16.2954 12.4698C15.9923 12.0163 15.5616 11.6628 15.0576 11.454C14.5536 11.2453 13.9991 11.1907 13.4641 11.2971C12.9291 11.4035 12.4376 11.6662 12.0519 12.0519C11.6662 12.4376 11.4035 12.9291 11.2971 13.4641C11.1907 13.9991 11.2453 14.5536 11.454 15.0576C11.6628 15.5616 12.0163 15.9923 12.4698 16.2954Z" fill="#27C03D" stroke="#27C03D"/>
<path d="M17.9305 10.3852C17.9305 10.558 17.7904 10.6981 17.6176 10.6981C17.4448 10.6981 17.3047 10.558 17.3047 10.3852C17.3047 10.2124 17.4448 10.0723 17.6176 10.0723C17.7904 10.0723 17.9305 10.2124 17.9305 10.3852Z" fill="#27C03D" stroke="#27C03D"/>
</svg>
