<svg width="57" height="57" viewBox="0 0 57 57" fill="none" xmlns="http://www.w3.org/2000/svg">
<rect width="57" height="57" rx="28.5" fill="white"/>
<path d="M28.032 38.288C27.056 38.288 26.128 38.112 25.248 37.76C24.384 37.392 23.64 36.88 23.016 36.224C22.408 35.552 21.992 34.76 21.768 33.848L24.624 32.84C24.912 33.656 25.352 34.28 25.944 34.712C26.536 35.128 27.232 35.336 28.032 35.336C28.672 35.336 29.224 35.216 29.688 34.976C30.168 34.736 30.544 34.392 30.816 33.944C31.088 33.48 31.224 32.936 31.224 32.312C31.224 31.688 31.088 31.16 30.816 30.728C30.56 30.28 30.192 29.936 29.712 29.696C29.232 29.456 28.664 29.336 28.008 29.336C27.704 29.336 27.384 29.368 27.048 29.432C26.728 29.496 26.44 29.592 26.184 29.72L25.44 28.16L30.072 22.88H22.776V20.12H33.744V22.688L29.088 28.136L29.136 26.912C30.208 26.928 31.144 27.16 31.944 27.608C32.744 28.056 33.368 28.672 33.816 29.456C34.264 30.24 34.488 31.16 34.488 32.216C34.488 33.368 34.208 34.408 33.648 35.336C33.088 36.248 32.32 36.968 31.344 37.496C30.368 38.024 29.264 38.288 28.032 38.288Z" fill="#27C03D"/>
</svg>
