<svg width="57" height="57" viewBox="0 0 57 57" fill="none" xmlns="http://www.w3.org/2000/svg">
<rect width="57" height="57" rx="28.5" fill="white"/>
<path d="M22.104 38V35.528L26.952 30.464C27.912 29.456 28.648 28.656 29.16 28.064C29.688 27.456 30.056 26.936 30.264 26.504C30.472 26.072 30.576 25.632 30.576 25.184C30.576 24.432 30.336 23.84 29.856 23.408C29.392 22.976 28.792 22.76 28.056 22.76C27.288 22.76 26.624 22.984 26.064 23.432C25.504 23.864 25.096 24.504 24.84 25.352L21.984 24.464C22.176 23.52 22.568 22.704 23.16 22.016C23.752 21.312 24.472 20.776 25.32 20.408C26.184 20.024 27.096 19.832 28.056 19.832C29.208 19.832 30.216 20.04 31.08 20.456C31.96 20.872 32.64 21.456 33.12 22.208C33.616 22.96 33.864 23.84 33.864 24.848C33.864 25.488 33.744 26.12 33.504 26.744C33.264 27.368 32.904 28.008 32.424 28.664C31.944 29.304 31.32 30.024 30.552 30.824L26.352 35.24H34.104V38H22.104Z" fill="#27C03D"/>
</svg>
