<svg width="154" height="46" viewBox="0 0 154 46" fill="none" xmlns="http://www.w3.org/2000/svg">
<rect x="0.853394" width="152.328" height="46" rx="7.54098" fill="#090914"/>
<path d="M60.2635 33.5588H58.9266L58.7743 31.8683C58.481 32.3979 58.0015 32.8544 57.3359 33.2376C56.6702 33.6207 55.8692 33.8123 54.9328 33.8123C53.9061 33.8123 52.9584 33.5813 52.0897 33.1192C51.221 32.6459 50.5046 31.9246 49.9405 30.9554C49.3877 29.9861 49.1113 28.8535 49.1113 27.5574C49.1113 26.2614 49.4046 25.1287 49.9913 24.1595C50.5779 23.1903 51.3113 22.4746 52.1913 22.0126C53.0825 21.5505 54.0359 21.3195 55.0512 21.3195C56.3374 21.3195 57.4543 21.6519 58.402 22.3169C59.361 22.9705 60.0153 23.844 60.3651 24.9372L58.8589 25.5795C58.5882 24.7118 58.1143 24.0412 57.4374 23.5678C56.7718 23.0832 55.9764 22.8409 55.0512 22.8409C53.8892 22.8409 52.8907 23.2523 52.0559 24.075C51.221 24.8977 50.8036 26.0585 50.8036 27.5574C50.8036 29.0676 51.2097 30.2397 52.022 31.0737C52.8456 31.8964 53.8328 32.3078 54.9836 32.3078C55.6153 32.3078 56.1738 32.2064 56.6589 32.0035C57.1553 31.8006 57.5389 31.5358 57.8097 31.209C58.0917 30.8708 58.3005 30.5327 58.4359 30.1946C58.5825 29.8565 58.6671 29.5184 58.6897 29.1803H54.5266V27.6927H60.2635V33.5588ZM64.3191 31.6316C64.8155 32.1387 65.4191 32.3923 66.1299 32.3923C66.8406 32.3923 67.4386 32.1387 67.9237 31.6316C68.4201 31.1132 68.6683 30.3975 68.6683 29.4846C68.6683 28.583 68.4201 27.8786 67.9237 27.3715C67.4386 26.8531 66.8406 26.5939 66.1299 26.5939C65.4191 26.5939 64.8155 26.8531 64.3191 27.3715C63.834 27.8786 63.5914 28.583 63.5914 29.4846C63.5914 30.3975 63.834 31.1132 64.3191 31.6316ZM63.1345 26.4079C63.9242 25.5852 64.9227 25.1738 66.1299 25.1738C67.337 25.1738 68.3299 25.5852 69.1083 26.4079C69.8981 27.2193 70.2929 28.2449 70.2929 29.4846C70.2929 30.7356 69.9037 31.7725 69.1252 32.5952C68.3468 33.4066 67.3483 33.8123 66.1299 33.8123C64.9114 33.8123 63.9129 33.4066 63.1345 32.5952C62.356 31.7725 61.9668 30.7356 61.9668 29.4846C61.9668 28.2449 62.356 27.2193 63.1345 26.4079ZM74.0036 31.6316C74.5 32.1387 75.1036 32.3923 75.8143 32.3923C76.5251 32.3923 77.1231 32.1387 77.6082 31.6316C78.1046 31.1132 78.3528 30.3975 78.3528 29.4846C78.3528 28.583 78.1046 27.8786 77.6082 27.3715C77.1231 26.8531 76.5251 26.5939 75.8143 26.5939C75.1036 26.5939 74.5 26.8531 74.0036 27.3715C73.5185 27.8786 73.2759 28.583 73.2759 29.4846C73.2759 30.3975 73.5185 31.1132 74.0036 31.6316ZM72.819 26.4079C73.6087 25.5852 74.6072 25.1738 75.8143 25.1738C77.0215 25.1738 78.0143 25.5852 78.7928 26.4079C79.5825 27.2193 79.9774 28.2449 79.9774 29.4846C79.9774 30.7356 79.5882 31.7725 78.8097 32.5952C78.0313 33.4066 77.0328 33.8123 75.8143 33.8123C74.5959 33.8123 73.5974 33.4066 72.819 32.5952C72.0405 31.7725 71.6513 30.7356 71.6513 29.4846C71.6513 28.2449 72.0405 27.2193 72.819 26.4079ZM81.4204 33.9983L82.9604 33.6433C83.0168 34.2181 83.2481 34.6914 83.6542 35.0633C84.0604 35.4465 84.5681 35.6381 85.1773 35.6381C86.8357 35.6381 87.665 34.759 87.665 33.0009V31.8344C87.4619 32.2289 87.1404 32.5501 86.7004 32.798C86.2716 33.046 85.764 33.1699 85.1773 33.1699C84.0942 33.1699 83.1973 32.8037 82.4865 32.0711C81.787 31.3273 81.4373 30.3806 81.4373 29.2311C81.4373 28.1153 81.787 27.1799 82.4865 26.4248C83.186 25.6584 84.0829 25.2753 85.1773 25.2753C86.4183 25.2753 87.2532 25.7035 87.6819 26.56V25.4274H89.2559V32.9502C89.2559 33.4911 89.1826 33.9927 89.0359 34.4547C88.9005 34.9281 88.6805 35.362 88.3757 35.7564C88.0711 36.1509 87.6424 36.4608 87.0896 36.6862C86.548 36.9116 85.9106 37.0243 85.1773 37.0243C84.1732 37.0243 83.3214 36.7369 82.6219 36.1622C81.9224 35.5986 81.5219 34.8774 81.4204 33.9983ZM85.4142 31.8344C86.1024 31.8344 86.6609 31.5978 87.0896 31.1244C87.5183 30.6398 87.7327 30.0087 87.7327 29.2311C87.7327 28.4534 87.5183 27.8279 87.0896 27.3546C86.6609 26.87 86.1024 26.6277 85.4142 26.6277C84.7147 26.6277 84.145 26.8643 83.705 27.3377C83.2763 27.811 83.0619 28.4421 83.0619 29.2311C83.0619 30.0312 83.2706 30.668 83.6881 31.1413C84.1168 31.6034 84.6922 31.8344 85.4142 31.8344ZM93.3867 33.5588H91.796V21.3195H93.3867V33.5588ZM97.1251 28.6563H101.576C101.553 28.0477 101.35 27.5518 100.967 27.1686C100.583 26.7742 100.042 26.5769 99.342 26.5769C98.7102 26.5769 98.1913 26.7854 97.7851 27.2024C97.3789 27.6082 97.1589 28.0928 97.1251 28.6563ZM101.813 30.7694L103.184 31.2428C102.947 31.9979 102.507 32.6177 101.864 33.1023C101.22 33.5757 100.442 33.8123 99.5282 33.8123C98.3887 33.8123 97.4184 33.4235 96.6174 32.6459C95.8277 31.857 95.4328 30.7976 95.4328 29.4677C95.4328 28.228 95.8164 27.2024 96.5836 26.391C97.3507 25.5795 98.2646 25.1738 99.3251 25.1738C100.555 25.1738 101.514 25.5626 102.202 26.3403C102.89 27.1066 103.234 28.1379 103.234 29.4339C103.234 29.6368 103.223 29.8058 103.2 29.9411H97.0743C97.0856 30.6624 97.3225 31.254 97.7851 31.7161C98.2589 32.1782 98.84 32.4092 99.5282 32.4092C100.69 32.4092 101.452 31.8626 101.813 30.7694ZM111.324 27.1686H113.727C114.437 27.1686 115.001 26.9883 115.419 26.6277C115.836 26.2558 116.045 25.7599 116.045 25.14C116.045 24.5089 115.836 24.0074 115.419 23.6355C115.001 23.2523 114.437 23.0607 113.727 23.0607H111.324V27.1686ZM114.031 28.6563H111.324V33.5588H109.665V21.573H114.031C115.126 21.573 116.017 21.9111 116.705 22.5873C117.393 23.2635 117.737 24.1088 117.737 25.1231C117.737 26.1487 117.393 26.9939 116.705 27.6589C116.017 28.3238 115.126 28.6563 114.031 28.6563ZM121.019 33.5588H119.428V21.3195H121.019V33.5588ZM123.217 31.378C123.217 30.6793 123.443 30.1214 123.894 29.7044C124.345 29.2761 124.943 29.0113 125.688 28.9099L127.888 28.5887C128.305 28.5323 128.514 28.3294 128.514 27.9801C128.514 27.5518 128.367 27.2024 128.074 26.932C127.781 26.6615 127.341 26.5262 126.754 26.5262C126.213 26.5262 125.784 26.6784 125.468 26.9827C125.152 27.2757 124.966 27.6701 124.909 28.166L123.386 27.811C123.465 27.0334 123.821 26.4023 124.453 25.9176C125.084 25.4218 125.84 25.1738 126.72 25.1738C127.871 25.1738 128.723 25.4556 129.276 26.0191C129.828 26.5713 130.105 27.2813 130.105 28.1491V32.2233C130.105 32.7079 130.139 33.153 130.206 33.5588H128.649C128.593 33.2207 128.565 32.8544 128.565 32.4599C128.339 32.8206 128.006 33.1361 127.566 33.4066C127.138 33.6771 126.596 33.8123 125.942 33.8123C125.141 33.8123 124.486 33.5757 123.979 33.1023C123.471 32.6177 123.217 32.0429 123.217 31.378ZM126.162 32.4768C126.873 32.4768 127.442 32.2852 127.871 31.9021C128.3 31.5189 128.514 30.9103 128.514 30.0763V29.7044L126.026 30.0763C125.665 30.1327 125.378 30.2623 125.163 30.4651C124.949 30.668 124.842 30.9441 124.842 31.2935C124.842 31.609 124.96 31.8852 125.197 32.1218C125.445 32.3585 125.767 32.4768 126.162 32.4768ZM134.449 36.9567H132.706L134.737 32.6628L131.234 25.4274H133.062L135.6 31.0399L138.037 25.4274H139.746L134.449 36.9567Z" fill="white"/>
<path opacity="0.6" d="M53.8177 15.0435V12.6671H51.5355V13.4399H52.9796C52.9281 13.7619 52.5993 14.3286 51.7547 14.3286C50.9876 14.3286 50.3106 13.7941 50.3106 12.7637C50.3106 11.6817 51.0585 11.2116 51.7483 11.2116C52.4897 11.2116 52.87 11.6817 52.9861 12.0875L53.8371 11.7848C53.6114 11.0828 52.9474 10.3809 51.7483 10.3809C50.5105 10.3809 49.4081 11.2889 49.4081 12.7637C49.4081 14.2384 50.4589 15.1401 51.6903 15.1401C52.3801 15.1401 52.8314 14.8309 53.0377 14.5218L53.0957 15.0435H53.8177ZM58.7867 15.0435V14.2062H56.8139V13.1501H58.5997V12.358H56.8139V11.3147H58.7867V10.4775H55.9242V15.0435H58.7867ZM64.3261 11.3211V10.4775H60.5418V11.3211H61.9859V15.0435H62.882V11.3211H64.3261ZM69.8654 15.0435V10.4775H68.9628V15.0435H69.8654ZM75.4823 11.3211V10.4775H71.698V11.3211H73.1421V15.0435H74.0382V11.3211H75.4823ZM80.77 12.7572C80.77 11.7268 81.492 11.2374 82.1947 11.2374C82.9039 11.2374 83.6259 11.7268 83.6259 12.7572C83.6259 13.7876 82.9039 14.2771 82.1947 14.2771C81.492 14.2771 80.77 13.7876 80.77 12.7572ZM79.8481 12.7637C79.8481 14.232 80.9569 15.1401 82.1947 15.1401C83.439 15.1401 84.5478 14.232 84.5478 12.7637C84.5478 11.2889 83.439 10.3809 82.1947 10.3809C80.9569 10.3809 79.8481 11.2889 79.8481 12.7637ZM90.4287 15.0435V10.4775H89.539V13.4978L87.6369 10.4775H86.528V15.0435H87.4177V11.8041L89.4939 15.0435H90.4287Z" fill="white"/>
<path d="M23.4145 33.2294C22.9372 33.5375 22.3639 33.6306 21.826 33.5038L31.2764 24.0635L34.3393 27.1231L23.4145 33.2294Z" fill="#FE3E49"/>
<path d="M20.6534 32.7366C20.3899 32.3866 20.2382 31.9568 20.2382 31.5021V14.6861C20.2382 14.2315 20.3899 13.8017 20.6534 13.4517L30.3061 23.0941L20.6534 32.7366Z" fill="#00BEEE"/>
<path d="M38.3376 24.8888L35.5849 26.4273L32.2479 23.0939L35.5851 19.7603L38.3381 21.2989C38.9976 21.668 39.3914 22.339 39.3914 23.0939C39.3914 23.8487 38.9976 24.5196 38.3376 24.8888Z" fill="#FEC200"/>
<path d="M31.2777 22.1247L21.828 12.6849C21.9829 12.6485 22.1406 12.6289 22.2982 12.6289C22.6879 12.6289 23.0762 12.7396 23.4159 12.9588L34.3407 19.065L31.2777 22.1247Z" fill="#00B65F"/>
</svg>
