<svg width="153" height="46" viewBox="0 0 153 46" fill="none" xmlns="http://www.w3.org/2000/svg">
<rect x="0.524597" width="152.328" height="46" rx="7.54098" fill="white"/>
<path d="M59.9347 33.5588H58.5978L58.4455 31.8683C58.1522 32.3979 57.6727 32.8544 57.0071 33.2376C56.3414 33.6207 55.5404 33.8123 54.604 33.8123C53.5773 33.8123 52.6296 33.5813 51.7609 33.1192C50.8922 32.6459 50.1758 31.9246 49.6117 30.9554C49.0589 29.9861 48.7825 28.8535 48.7825 27.5574C48.7825 26.2614 49.0758 25.1287 49.6625 24.1595C50.2491 23.1903 50.9825 22.4746 51.8625 22.0126C52.7537 21.5505 53.7071 21.3195 54.7225 21.3195C56.0086 21.3195 57.1255 21.6519 58.0732 22.3169C59.0322 22.9705 59.6865 23.844 60.0363 24.9372L58.5301 25.5795C58.2594 24.7118 57.7855 24.0412 57.1086 23.5678C56.443 23.0832 55.6476 22.8409 54.7225 22.8409C53.5604 22.8409 52.5619 23.2523 51.7271 24.075C50.8922 24.8977 50.4748 26.0585 50.4748 27.5574C50.4748 29.0676 50.8809 30.2397 51.6932 31.0737C52.5168 31.8964 53.504 32.3078 54.6548 32.3078C55.2866 32.3078 55.845 32.2064 56.3301 32.0035C56.8265 31.8006 57.2101 31.5358 57.4809 31.209C57.763 30.8708 57.9717 30.5327 58.1071 30.1946C58.2537 29.8565 58.3383 29.5184 58.3609 29.1803H54.1978V27.6927H59.9347V33.5588ZM63.9903 31.6316C64.4867 32.1387 65.0903 32.3923 65.8011 32.3923C66.5118 32.3923 67.1098 32.1387 67.5949 31.6316C68.0913 31.1132 68.3395 30.3975 68.3395 29.4846C68.3395 28.583 68.0913 27.8786 67.5949 27.3715C67.1098 26.8531 66.5118 26.5939 65.8011 26.5939C65.0903 26.5939 64.4867 26.8531 63.9903 27.3715C63.5052 27.8786 63.2626 28.583 63.2626 29.4846C63.2626 30.3975 63.5052 31.1132 63.9903 31.6316ZM62.8057 26.4079C63.5954 25.5852 64.5939 25.1738 65.8011 25.1738C67.0082 25.1738 68.0011 25.5852 68.7795 26.4079C69.5693 27.2193 69.9641 28.2449 69.9641 29.4846C69.9641 30.7356 69.5749 31.7725 68.7964 32.5952C68.018 33.4066 67.0195 33.8123 65.8011 33.8123C64.5826 33.8123 63.5842 33.4066 62.8057 32.5952C62.0272 31.7725 61.638 30.7356 61.638 29.4846C61.638 28.2449 62.0272 27.2193 62.8057 26.4079ZM73.6748 31.6316C74.1712 32.1387 74.7748 32.3923 75.4855 32.3923C76.1963 32.3923 76.7943 32.1387 77.2794 31.6316C77.7758 31.1132 78.024 30.3975 78.024 29.4846C78.024 28.583 77.7758 27.8786 77.2794 27.3715C76.7943 26.8531 76.1963 26.5939 75.4855 26.5939C74.7748 26.5939 74.1712 26.8531 73.6748 27.3715C73.1897 27.8786 72.9471 28.583 72.9471 29.4846C72.9471 30.3975 73.1897 31.1132 73.6748 31.6316ZM72.4902 26.4079C73.2799 25.5852 74.2784 25.1738 75.4855 25.1738C76.6927 25.1738 77.6855 25.5852 78.464 26.4079C79.2537 27.2193 79.6486 28.2449 79.6486 29.4846C79.6486 30.7356 79.2594 31.7725 78.4809 32.5952C77.7025 33.4066 76.704 33.8123 75.4855 33.8123C74.2671 33.8123 73.2686 33.4066 72.4902 32.5952C71.7117 31.7725 71.3225 30.7356 71.3225 29.4846C71.3225 28.2449 71.7117 27.2193 72.4902 26.4079ZM81.0916 33.9983L82.6316 33.6433C82.688 34.2181 82.9193 34.6914 83.3254 35.0633C83.7316 35.4465 84.2393 35.6381 84.8485 35.6381C86.5069 35.6381 87.3362 34.759 87.3362 33.0009V31.8344C87.1331 32.2289 86.8116 32.5501 86.3716 32.798C85.9428 33.046 85.4352 33.1699 84.8485 33.1699C83.7654 33.1699 82.8685 32.8037 82.1577 32.0711C81.4582 31.3273 81.1085 30.3806 81.1085 29.2311C81.1085 28.1153 81.4582 27.1799 82.1577 26.4248C82.8572 25.6584 83.7541 25.2753 84.8485 25.2753C86.0895 25.2753 86.9244 25.7035 87.3531 26.56V25.4274H88.9271V32.9502C88.9271 33.4911 88.8538 33.9927 88.7071 34.4547C88.5717 34.9281 88.3517 35.362 88.0469 35.7564C87.7423 36.1509 87.3136 36.4608 86.7608 36.6862C86.2193 36.9116 85.5818 37.0243 84.8485 37.0243C83.8444 37.0243 82.9926 36.7369 82.2931 36.1622C81.5936 35.5986 81.1931 34.8774 81.0916 33.9983ZM85.0854 31.8344C85.7736 31.8344 86.3321 31.5978 86.7608 31.1244C87.1895 30.6398 87.4039 30.0087 87.4039 29.2311C87.4039 28.4534 87.1895 27.8279 86.7608 27.3546C86.3321 26.87 85.7736 26.6277 85.0854 26.6277C84.3859 26.6277 83.8162 26.8643 83.3762 27.3377C82.9475 27.811 82.7331 28.4421 82.7331 29.2311C82.7331 30.0312 82.9418 30.668 83.3593 31.1413C83.788 31.6034 84.3634 31.8344 85.0854 31.8344ZM93.0579 33.5588H91.4672V21.3195H93.0579V33.5588ZM96.7963 28.6563H101.247C101.224 28.0477 101.021 27.5518 100.638 27.1686C100.254 26.7742 99.7127 26.5769 99.0132 26.5769C98.3814 26.5769 97.8625 26.7854 97.4563 27.2024C97.0502 27.6082 96.8302 28.0928 96.7963 28.6563ZM101.484 30.7694L102.855 31.2428C102.618 31.9979 102.178 32.6177 101.535 33.1023C100.892 33.5757 100.113 33.8123 99.1994 33.8123C98.0599 33.8123 97.0896 33.4235 96.2886 32.6459C95.4989 31.857 95.104 30.7976 95.104 29.4677C95.104 28.228 95.4876 27.2024 96.2548 26.391C97.0219 25.5795 97.9358 25.1738 98.9963 25.1738C100.226 25.1738 101.185 25.5626 101.873 26.3403C102.561 27.1066 102.906 28.1379 102.906 29.4339C102.906 29.6368 102.894 29.8058 102.872 29.9411H96.7455C96.7568 30.6624 96.9937 31.254 97.4563 31.7161C97.9301 32.1782 98.5112 32.4092 99.1994 32.4092C100.361 32.4092 101.123 31.8626 101.484 30.7694ZM110.995 27.1686H113.398C114.109 27.1686 114.673 26.9883 115.09 26.6277C115.508 26.2558 115.716 25.7599 115.716 25.14C115.716 24.5089 115.508 24.0074 115.09 23.6355C114.673 23.2523 114.109 23.0607 113.398 23.0607H110.995V27.1686ZM113.702 28.6563H110.995V33.5588H109.336V21.573H113.702C114.797 21.573 115.688 21.9111 116.376 22.5873C117.064 23.2635 117.409 24.1088 117.409 25.1231C117.409 26.1487 117.064 26.9939 116.376 27.6589C115.688 28.3238 114.797 28.6563 113.702 28.6563ZM120.69 33.5588H119.099V21.3195H120.69V33.5588ZM122.888 31.378C122.888 30.6793 123.114 30.1214 123.565 29.7044C124.017 29.2761 124.615 29.0113 125.359 28.9099L127.559 28.5887C127.977 28.5323 128.185 28.3294 128.185 27.9801C128.185 27.5518 128.039 27.2024 127.745 26.932C127.452 26.6615 127.012 26.5262 126.425 26.5262C125.884 26.5262 125.455 26.6784 125.139 26.9827C124.823 27.2757 124.637 27.6701 124.581 28.166L123.058 27.811C123.137 27.0334 123.492 26.4023 124.124 25.9176C124.756 25.4218 125.511 25.1738 126.391 25.1738C127.542 25.1738 128.394 25.4556 128.947 26.0191C129.5 26.5713 129.776 27.2813 129.776 28.1491V32.2233C129.776 32.7079 129.81 33.153 129.878 33.5588H128.321C128.264 33.2207 128.236 32.8544 128.236 32.4599C128.01 32.8206 127.678 33.1361 127.238 33.4066C126.809 33.6771 126.267 33.8123 125.613 33.8123C124.812 33.8123 124.158 33.5757 123.65 33.1023C123.142 32.6177 122.888 32.0429 122.888 31.378ZM125.833 32.4768C126.544 32.4768 127.113 32.2852 127.542 31.9021C127.971 31.5189 128.185 30.9103 128.185 30.0763V29.7044L125.698 30.0763C125.337 30.1327 125.049 30.2623 124.835 30.4651C124.62 30.668 124.513 30.9441 124.513 31.2935C124.513 31.609 124.631 31.8852 124.868 32.1218C125.117 32.3585 125.438 32.4768 125.833 32.4768ZM134.12 36.9567H132.377L134.408 32.6628L130.905 25.4274H132.733L135.271 31.0399L137.708 25.4274H139.417L134.12 36.9567Z" fill="black"/>
<path opacity="0.6" d="M53.4889 15.0435V12.6671H51.2067V13.4399H52.6508C52.5993 13.7619 52.2705 14.3286 51.4259 14.3286C50.6588 14.3286 49.9818 13.7941 49.9818 12.7637C49.9818 11.6817 50.7297 11.2116 51.4195 11.2116C52.1609 11.2116 52.5413 11.6817 52.6573 12.0875L53.5083 11.7848C53.2826 11.0828 52.6186 10.3809 51.4195 10.3809C50.1817 10.3809 49.0793 11.2889 49.0793 12.7637C49.0793 14.2384 50.1301 15.1401 51.3615 15.1401C52.0513 15.1401 52.5026 14.8309 52.7089 14.5218L52.7669 15.0435H53.4889ZM58.4579 15.0435V14.2062H56.4851V13.1501H58.2709V12.358H56.4851V11.3147H58.4579V10.4775H55.5955V15.0435H58.4579ZM63.9973 11.3211V10.4775H60.213V11.3211H61.6571V15.0435H62.5532V11.3211H63.9973ZM69.5366 15.0435V10.4775H68.634V15.0435H69.5366ZM75.1535 11.3211V10.4775H71.3692V11.3211H72.8133V15.0435H73.7094V11.3211H75.1535ZM80.4412 12.7572C80.4412 11.7268 81.1632 11.2374 81.8659 11.2374C82.5751 11.2374 83.2972 11.7268 83.2972 12.7572C83.2972 13.7876 82.5751 14.2771 81.8659 14.2771C81.1632 14.2771 80.4412 13.7876 80.4412 12.7572ZM79.5193 12.7637C79.5193 14.232 80.6282 15.1401 81.8659 15.1401C83.1102 15.1401 84.2191 14.232 84.2191 12.7637C84.2191 11.2889 83.1102 10.3809 81.8659 10.3809C80.6282 10.3809 79.5193 11.2889 79.5193 12.7637ZM90.0999 15.0435V10.4775H89.2102V13.4978L87.3081 10.4775H86.1992V15.0435H87.0889V11.8041L89.1651 15.0435H90.0999Z" fill="#263238"/>
<path d="M23.0855 33.2292C22.6082 33.5374 22.0349 33.6305 21.4971 33.5037L30.9475 24.0634L34.0103 27.1229L23.0855 33.2292Z" fill="#FE626C"/>
<path d="M20.3246 32.7365C20.0611 32.3865 19.9094 31.9567 19.9094 31.502V14.686C19.9094 14.2313 20.0611 13.8016 20.3246 13.4515L29.9774 23.094L20.3246 32.7365Z" fill="#00BEEE"/>
<path d="M38.0088 24.8883L35.2561 26.4268L31.9191 23.0934L35.2563 19.7598L38.0093 21.2985C38.6688 21.6675 39.0626 22.3385 39.0626 23.0934C39.0626 23.8482 38.6688 24.5191 38.0088 24.8883Z" fill="#FEC200"/>
<path d="M30.9489 22.1247L21.4992 12.6849C21.6541 12.6485 21.8118 12.6289 21.9694 12.6289C22.3591 12.6289 22.7474 12.7396 23.0871 12.9588L34.0119 19.065L30.9489 22.1247Z" fill="#00B65F"/>
</svg>
