<svg width="28" height="28" viewBox="0 0 28 28" fill="none" xmlns="http://www.w3.org/2000/svg">
<circle cx="14" cy="14" r="13.5" stroke="#27C03D"/>
<path d="M12.4087 16.4891C11.9133 16.4891 11.4623 16.2725 11.1403 15.9241C11.2409 15.9105 11.34 15.8919 11.4358 15.8679L11.4126 14.8925C10.8315 14.7763 10.3496 14.374 10.12 13.8357C10.242 13.8573 10.366 13.872 10.4919 13.8799L12.3469 13.9958L10.8004 12.9648C10.3063 12.6354 9.99878 12.0908 9.99878 11.472C9.99878 11.4102 10.002 11.3496 10.0084 11.2897C11.1967 12.4246 12.7763 13.1432 14.5024 13.2284L15.1996 13.2628L15.0078 12.5917C14.9744 12.4747 14.9572 12.3581 14.9572 12.2169C14.9572 11.236 15.7576 10.4355 16.7386 10.4355C17.2478 10.4355 17.7234 10.6546 18.0517 11.0011L18.2455 11.2056L18.5209 11.1458C18.5769 11.1336 18.6325 11.1207 18.6877 11.1071L18.8867 11.6616C18.8529 11.6865 18.8187 11.7108 18.7841 11.7344L18.5665 11.8833V12.1471V12.1476V12.1481V12.1487V12.1492V12.1498V12.1503V12.1509V12.1514V12.152V12.1525V12.1531V12.1536V12.1542V12.1547V12.1553V12.1558V12.1564V12.157V12.1575V12.1581V12.1586V12.1592V12.1597V12.1603V12.1609V12.1614V12.162V12.1625V12.1631V12.1637V12.1642V12.1648V12.1653V12.1659V12.1665V12.167V12.1676V12.1682V12.1687V12.1693V12.1698V12.1704V12.171V12.1715V12.1721V12.1727V12.1732V12.1738V12.1744V12.175V12.1755V12.1761V12.1767V12.1772V12.1778V12.1784V12.179V12.1795V12.1801V12.1807V12.1812V12.1818V12.1824V12.183V12.1835V12.1841V12.1847V12.1853V12.1859V12.1864V12.187V12.1876V12.1882V12.1887V12.1893V12.1899V12.1905V12.1911V12.1916V12.1922V12.1928V12.1934V12.194V12.1946V12.1951V12.1957V12.1963V12.1969V12.1975V12.1981V12.1986V12.1992V12.1998V12.2004V12.201V12.2016V12.2022V12.2028V12.2033V12.2039V12.2045V12.2051V12.2057V12.2063V12.2069V12.2075V12.2081V12.2086V12.2092V12.2098V12.2104V12.211V12.2116V12.2122V12.2128V12.2134V12.214V12.2146V12.2152V12.2158V12.2164V12.217V12.2175V12.2181V12.2187V12.2193V12.2199V12.2205V12.2211V12.2217V12.2223V12.2229V12.2235V12.2241V12.2247V12.2253V12.2259V12.2265V12.2271V12.2277V12.2283V12.2289V12.2295V12.2301V12.2307V12.2313V12.2319V12.2325V12.2331V12.2337V12.2343V12.2349V12.2355V12.2361V12.2367V12.2373V12.2379V12.2385V12.2391V12.2397V12.2404V12.241V12.2416V12.2422V12.2428V12.2434V12.244V12.2446V12.2452V12.2458V12.2464V12.247V12.2476V12.2482V12.2488V12.2494V12.25V12.2507V12.2513V12.2519V12.2525V12.2531V12.2537V12.2543V12.2549V12.2555V12.2561V12.2567V12.2573V12.258V12.2586V12.2592V12.2598V12.2604V12.261V12.2616V12.2622V12.2628V12.2634V12.2641V12.2647V12.2653V12.2659V12.2665V12.2671V12.2677V12.2683V12.2689V12.2696V12.2702V12.2708V12.2714V12.272V12.2726V12.2732V12.2738V12.2744V12.2751V12.2757V12.2763V12.2769V12.2775V12.2781V12.2787V12.2793V12.28V12.2806V12.2812V12.2818V12.2824V12.283V12.2836V12.2843V12.2849V12.2855V12.2861V12.2867V12.2873V12.2879V12.2885V12.2892V12.2898V12.2904V12.291V12.2916V12.2922V12.2928V12.2935V12.2941V12.2947V12.2953V12.2959V12.2965V12.2971V12.2978V12.2984V12.299V12.2996V12.3002V12.3008V12.3014V12.302V12.3027V12.3033V12.3039V12.3045V12.3051V12.3057V12.3063V12.307V12.3076V12.3082V12.3088V12.3094V12.31V12.3106V12.3113V12.3119V12.3125V12.3131V12.3137V12.3143V12.3149V12.3155V12.3162V12.3168V12.3174V12.318V12.3186V12.3192V12.3198V12.3204V12.3211V12.3217V12.3223V12.3229V12.3235V12.3241V12.3247V12.3253V12.326V12.3266V12.3272V12.3278V12.3284V12.329V12.3296V12.3302V12.3308V12.3315V12.3321V12.3327V12.3333V12.3339V12.3345V12.3351V12.3357V12.3363V12.3369V12.3376V12.3382V12.3388V12.3394V12.34V12.3406V12.3412V12.3418V12.3424V12.343V12.3436V12.3443V12.3449V12.3455V12.3461V12.3467V12.3473V12.3479V12.3485V12.3491V12.3497V12.3503V12.3509V12.3515V12.3521V12.3528V12.3534V12.354V12.3546V12.3552V12.3558V12.3564V12.357V12.3576V12.3582V12.3588V12.3594V12.36V12.3606V12.3612V12.3618V12.3624V12.363V12.3636V12.3642V12.3648V12.3654V12.366V12.3666V12.3672V12.3678V12.3684V12.369V12.3696V12.3702V12.3708V12.3714V12.372V12.3726V12.3732V12.3738V12.3744V12.375V12.3756V12.3762V12.3768V12.3774V12.378V12.3786V12.3792V12.3798V12.3804V12.381V12.3816V12.3822V12.3828V12.3833V12.3839V12.3845V12.3851V12.3857V12.3863V12.3869V12.3875V12.3881V12.3887V12.3893V12.3899V12.3904V12.391V12.3916V12.3922V12.3928V12.3934V12.394V12.3946V12.3952V12.3957V12.3963V12.3969V12.3975V12.3981V12.3987V12.3993V12.3998V12.4004V12.401V12.4016V12.4022V12.4028V12.4033V12.4039V12.4045V12.4051V12.4057V12.4062V12.4068V12.4074V12.408V12.4086V12.4091V12.4097V12.4103V12.4109V12.4115V12.412V12.4126V12.4132V12.4138V12.4143V12.4149V12.4155V12.4161V12.4166V12.4172V12.4178V12.4184V12.4189V12.4195V12.4201V12.4206V12.4212V12.4218V12.4223V12.4229V12.4235V12.4241V12.4246V12.4252V12.4258V12.4263V12.4269V12.4275V12.428V12.4286V12.4291V12.4297V12.4303V12.4308V12.4314V12.432V12.4325V12.4331V12.4336V12.4342V12.4348V12.4353V12.4359V12.4364V12.437V12.4376V12.4381V12.4387V12.4392V12.4398V12.4403V12.4409V12.4414V12.442V12.4425V12.4431V12.4436V12.4442V12.4447V12.4453V12.4458V12.4464V12.4469V12.4475V12.448V12.4486V12.4491V12.4497C18.5665 15.261 16.4282 18.4678 12.5483 18.4678C12.0035 18.4678 11.4813 18.3976 10.985 18.265C11.6194 18.0802 12.2022 17.7764 12.7124 17.3863L13.8856 16.4891H12.4087Z" fill="#27C03D" stroke="#27C03D"/>
</svg>
